<svg xmlns="http://www.w3.org/2000/svg" xmlns:xlink="http://www.w3.org/1999/xlink" viewBox="0,0,256,256" width="24px" height="24px"><g fill="#7c3bed" fill-rule="nonzero" stroke="none" stroke-width="1" stroke-linecap="butt" stroke-linejoin="miter" stroke-miterlimit="10" stroke-dasharray="" stroke-dashoffset="0" font-family="none" font-weight="none" font-size="none" text-anchor="none" style="mix-blend-mode: normal"><g transform="scale(10.66667,10.66667)"><path d="M3,3v1v17h18v-18zM5,5h14v14h-14zM7,10v1.45117h2.07422v6.54883h1.70703v-6.54883h2.11719v-1.45117zM15.55469,10.01953c-1.18425,0.08637 -2.36719,0.58216 -2.36719,2.22266c0,2.413 3.25,2.412 3.25,3.5c0,0.103 0.04544,0.85351 -1.10156,0.85351c-1.147,0 -2.10547,-0.7207 -2.10547,-0.7207v1.75195c0,0 5.00195,1.61675 5.00195,-2.03125c0,-2.369 -3.28125,-2.25073 -3.28125,-3.42773c0,-0.456 0.32566,-0.88281 1.22266,-0.88281c0.897,0 1.69141,0.5293 1.69141,0.5293l0.05859,-1.55859c0,0 -1.18489,-0.3227 -2.36914,-0.23633z"></path></g></g></svg>